<svg width="327" height="159" viewBox="0 0 327 159" fill="none" xmlns="http://www.w3.org/2000/svg">
<mask id="mask0_7_31" style="mask-type:alpha" maskUnits="userSpaceOnUse" x="0" y="0" width="327" height="159">
<path d="M326.5 158.5H0V0.5L326.5 35.5V158.5Z" fill="#11455A"/>
</mask>
<g mask="url(#mask0_7_31)">
<path d="M326.5 158.5H0V0.5L326.5 35.5V158.5Z" fill="#11455A"/>
<path d="M34.5 44.5C38.9 24.5 59.3333 10.1667 69 5.50001C134 -28.5 259.5 5.50001 279.5 19C299.5 32.5 310 97.5 245 125.5C180 153.5 118 143.5 78.5 125.5C39 107.5 29 69.5 34.5 44.5Z" fill="#0F3D50"/>
<path d="M177.5 118.5C126.3 124.1 86.8333 102.167 73.5 90.5C80.5 91.8333 97.8 98 125 98C159 98 163 80 184.5 64C206 48 231.5 53 244.5 57.5C257.5 62 267.5 66 265 73.5C262.5 81 241.5 111.5 177.5 118.5Z" fill="#11455A"/>
<path d="M147.885 4.89887C199.085 -0.701123 238.552 21.2322 251.885 32.8989C244.885 31.5655 227.585 25.3989 200.385 25.3989C166.385 25.3989 162.385 43.3989 140.885 59.3989C119.385 75.3989 93.8851 70.3989 80.8851 65.8989C67.8851 61.3989 57.8851 57.3989 60.3851 49.8989C62.8851 42.3989 83.8851 11.8989 147.885 4.89887Z" fill="#11455A"/>
</g>
</svg>
